<mxfile host="Electron" agent="Mozilla/5.0 (Macintosh; Intel Mac OS X 10_15_7) AppleWebKit/537.36 (KHTML, like Gecko) draw.io/24.7.17 Chrome/128.0.6613.36 Electron/32.0.1 Safari/537.36" version="24.7.17">
  <diagram name="Page-1" id="0_-_a3WUVpLAPQEfZTsn">
    <mxGraphModel dx="1908" dy="1348" grid="1" gridSize="10" guides="1" tooltips="1" connect="1" arrows="1" fold="1" page="1" pageScale="1" pageWidth="827" pageHeight="1169" math="1" shadow="0">
      <root>
        <mxCell id="0" />
        <mxCell id="1" parent="0" />
        <mxCell id="QPudRAt53EiQrHGf7BYg-118" value="" style="rounded=0;whiteSpace=wrap;html=1;fillColor=#F7F7F7;strokeColor=none;strokeWidth=2;arcSize=5;fontColor=#333333;" vertex="1" parent="1">
          <mxGeometry x="637" y="331.75" width="370" height="92.5" as="geometry" />
        </mxCell>
        <mxCell id="QPudRAt53EiQrHGf7BYg-67" value="" style="shape=cube;whiteSpace=wrap;html=1;boundedLbl=1;backgroundOutline=1;darkOpacity=0.05;darkOpacity2=0.1;fillColor=#e1d5e7;strokeColor=#9673a6;strokeWidth=3;" vertex="1" parent="1">
          <mxGeometry x="460" y="100" width="60" height="60" as="geometry" />
        </mxCell>
        <mxCell id="QPudRAt53EiQrHGf7BYg-68" value="" style="shape=cube;whiteSpace=wrap;html=1;boundedLbl=1;backgroundOutline=1;darkOpacity=0.05;darkOpacity2=0.1;fillColor=#e1d5e7;strokeColor=#9673a6;strokeWidth=3;" vertex="1" parent="1">
          <mxGeometry x="420" y="100" width="60" height="60" as="geometry" />
        </mxCell>
        <mxCell id="QPudRAt53EiQrHGf7BYg-69" value="" style="shape=cube;whiteSpace=wrap;html=1;boundedLbl=1;backgroundOutline=1;darkOpacity=0.05;darkOpacity2=0.1;fillColor=#e1d5e7;strokeColor=#9673a6;strokeWidth=3;" vertex="1" parent="1">
          <mxGeometry x="380" y="100" width="60" height="60" as="geometry" />
        </mxCell>
        <mxCell id="QPudRAt53EiQrHGf7BYg-70" value="" style="shape=cube;whiteSpace=wrap;html=1;boundedLbl=1;backgroundOutline=1;darkOpacity=0.05;darkOpacity2=0.1;fillColor=#dae8fc;strokeColor=#6c8ebf;strokeWidth=3;" vertex="1" parent="1">
          <mxGeometry x="340" y="100" width="60" height="60" as="geometry" />
        </mxCell>
        <mxCell id="QPudRAt53EiQrHGf7BYg-71" value="" style="shape=cube;whiteSpace=wrap;html=1;boundedLbl=1;backgroundOutline=1;darkOpacity=0.05;darkOpacity2=0.1;fillColor=#dae8fc;strokeColor=#6c8ebf;strokeWidth=3;" vertex="1" parent="1">
          <mxGeometry x="300" y="100" width="60" height="60" as="geometry" />
        </mxCell>
        <mxCell id="QPudRAt53EiQrHGf7BYg-63" value="" style="shape=cube;whiteSpace=wrap;html=1;boundedLbl=1;backgroundOutline=1;darkOpacity=0.05;darkOpacity2=0.1;fillColor=#dae8fc;strokeColor=#6c8ebf;strokeWidth=3;" vertex="1" parent="1">
          <mxGeometry x="260" y="140" width="60" height="60" as="geometry" />
        </mxCell>
        <mxCell id="QPudRAt53EiQrHGf7BYg-64" value="" style="shape=cube;whiteSpace=wrap;html=1;boundedLbl=1;backgroundOutline=1;darkOpacity=0.05;darkOpacity2=0.1;fillColor=#dae8fc;strokeColor=#6c8ebf;strokeWidth=3;" vertex="1" parent="1">
          <mxGeometry x="260" y="100" width="60" height="60" as="geometry" />
        </mxCell>
        <mxCell id="QPudRAt53EiQrHGf7BYg-58" value="" style="shape=cube;whiteSpace=wrap;html=1;boundedLbl=1;backgroundOutline=1;darkOpacity=0.05;darkOpacity2=0.1;fillColor=#dae8fc;strokeColor=#6c8ebf;strokeWidth=3;" vertex="1" parent="1">
          <mxGeometry x="220" y="140" width="60" height="60" as="geometry" />
        </mxCell>
        <mxCell id="QPudRAt53EiQrHGf7BYg-59" value="" style="shape=cube;whiteSpace=wrap;html=1;boundedLbl=1;backgroundOutline=1;darkOpacity=0.05;darkOpacity2=0.1;fillColor=#dae8fc;strokeColor=#6c8ebf;strokeWidth=3;" vertex="1" parent="1">
          <mxGeometry x="180" y="140" width="60" height="60" as="geometry" />
        </mxCell>
        <mxCell id="QPudRAt53EiQrHGf7BYg-60" value="" style="shape=cube;whiteSpace=wrap;html=1;boundedLbl=1;backgroundOutline=1;darkOpacity=0.05;darkOpacity2=0.1;fillColor=#dae8fc;strokeColor=#6c8ebf;strokeWidth=3;" vertex="1" parent="1">
          <mxGeometry x="140" y="140" width="60" height="60" as="geometry" />
        </mxCell>
        <mxCell id="QPudRAt53EiQrHGf7BYg-61" value="" style="shape=cube;whiteSpace=wrap;html=1;boundedLbl=1;backgroundOutline=1;darkOpacity=0.05;darkOpacity2=0.1;fillColor=#dae8fc;strokeColor=#6c8ebf;strokeWidth=3;" vertex="1" parent="1">
          <mxGeometry x="100" y="140" width="60" height="60" as="geometry" />
        </mxCell>
        <mxCell id="_CMiZezSvA6A_bbTY-Fj-1" value="&lt;font style=&quot;font-size: 20px;&quot;&gt;Transformer&lt;/font&gt;" style="rounded=1;whiteSpace=wrap;html=1;fillColor=#F0F0F0;strokeColor=#A6A6A6;strokeWidth=4;arcSize=5;" parent="1" vertex="1">
          <mxGeometry x="120" y="240" width="400" height="60" as="geometry" />
        </mxCell>
        <mxCell id="QPudRAt53EiQrHGf7BYg-1" value="&lt;font style=&quot;font-size: 20px;&quot;&gt;$&lt;/font&gt;" style="rounded=0;whiteSpace=wrap;html=1;fillColor=#dae8fc;strokeColor=#6c8ebf;strokeWidth=3;" vertex="1" parent="1">
          <mxGeometry x="120" y="340" width="40" height="40" as="geometry" />
        </mxCell>
        <mxCell id="QPudRAt53EiQrHGf7BYg-2" value="&lt;font style=&quot;font-size: 20px;&quot;&gt;1&lt;/font&gt;" style="rounded=0;whiteSpace=wrap;html=1;fillColor=#dae8fc;strokeColor=#6c8ebf;strokeWidth=3;" vertex="1" parent="1">
          <mxGeometry x="160" y="340" width="40" height="40" as="geometry" />
        </mxCell>
        <mxCell id="QPudRAt53EiQrHGf7BYg-3" value="&lt;font style=&quot;font-size: 20px;&quot;&gt;2&lt;/font&gt;" style="rounded=0;whiteSpace=wrap;html=1;fillColor=#dae8fc;strokeColor=#6c8ebf;strokeWidth=3;" vertex="1" parent="1">
          <mxGeometry x="200" y="340" width="40" height="40" as="geometry" />
        </mxCell>
        <mxCell id="QPudRAt53EiQrHGf7BYg-4" value="&lt;span style=&quot;font-size: 20px;&quot;&gt;+&lt;/span&gt;" style="rounded=0;whiteSpace=wrap;html=1;fillColor=#dae8fc;strokeColor=#6c8ebf;strokeWidth=3;" vertex="1" parent="1">
          <mxGeometry x="240" y="340" width="40" height="40" as="geometry" />
        </mxCell>
        <mxCell id="QPudRAt53EiQrHGf7BYg-5" value="&lt;font style=&quot;font-size: 20px;&quot;&gt;3&lt;/font&gt;" style="rounded=0;whiteSpace=wrap;html=1;fillColor=#dae8fc;strokeColor=#6c8ebf;strokeWidth=3;" vertex="1" parent="1">
          <mxGeometry x="280" y="340" width="40" height="40" as="geometry" />
        </mxCell>
        <mxCell id="QPudRAt53EiQrHGf7BYg-6" value="&lt;font style=&quot;font-size: 20px;&quot;&gt;4&lt;/font&gt;" style="rounded=0;whiteSpace=wrap;html=1;fillColor=#dae8fc;strokeColor=#6c8ebf;strokeWidth=3;" vertex="1" parent="1">
          <mxGeometry x="320" y="340" width="40" height="40" as="geometry" />
        </mxCell>
        <mxCell id="QPudRAt53EiQrHGf7BYg-7" value="&lt;font style=&quot;font-size: 20px;&quot;&gt;=&lt;/font&gt;" style="rounded=0;whiteSpace=wrap;html=1;fillColor=#dae8fc;strokeColor=#6c8ebf;strokeWidth=3;" vertex="1" parent="1">
          <mxGeometry x="360" y="340" width="40" height="40" as="geometry" />
        </mxCell>
        <mxCell id="QPudRAt53EiQrHGf7BYg-8" value="&lt;font style=&quot;font-size: 20px;&quot;&gt;4&lt;/font&gt;" style="rounded=0;whiteSpace=wrap;html=1;fillColor=#e1d5e7;strokeColor=#9673a6;strokeWidth=3;" vertex="1" parent="1">
          <mxGeometry x="400" y="340" width="40" height="40" as="geometry" />
        </mxCell>
        <mxCell id="QPudRAt53EiQrHGf7BYg-9" value="&lt;font style=&quot;font-size: 20px;&quot;&gt;6&lt;/font&gt;" style="rounded=0;whiteSpace=wrap;html=1;fillColor=#e1d5e7;strokeColor=#9673a6;strokeWidth=3;" vertex="1" parent="1">
          <mxGeometry x="440" y="340" width="40" height="40" as="geometry" />
        </mxCell>
        <mxCell id="QPudRAt53EiQrHGf7BYg-10" value="&lt;font style=&quot;font-size: 20px;&quot;&gt;$&lt;/font&gt;" style="rounded=0;whiteSpace=wrap;html=1;fillColor=#e1d5e7;strokeColor=#9673a6;strokeWidth=3;" vertex="1" parent="1">
          <mxGeometry x="480" y="340" width="40" height="40" as="geometry" />
        </mxCell>
        <mxCell id="QPudRAt53EiQrHGf7BYg-11" value="&lt;font style=&quot;font-size: 20px;&quot;&gt;Input batch&lt;/font&gt;" style="text;html=1;align=center;verticalAlign=middle;whiteSpace=wrap;rounded=0;strokeWidth=1;" vertex="1" parent="1">
          <mxGeometry x="240" y="470" width="160" height="30" as="geometry" />
        </mxCell>
        <mxCell id="QPudRAt53EiQrHGf7BYg-12" value="&lt;font style=&quot;font-size: 20px;&quot;&gt;$&lt;/font&gt;" style="rounded=0;whiteSpace=wrap;html=1;fillColor=#dae8fc;strokeColor=#6c8ebf;strokeWidth=3;" vertex="1" parent="1">
          <mxGeometry x="120" y="380" width="40" height="40" as="geometry" />
        </mxCell>
        <mxCell id="QPudRAt53EiQrHGf7BYg-13" value="&lt;font style=&quot;font-size: 20px;&quot;&gt;8&lt;/font&gt;" style="rounded=0;whiteSpace=wrap;html=1;fillColor=#dae8fc;strokeColor=#6c8ebf;strokeWidth=3;" vertex="1" parent="1">
          <mxGeometry x="160" y="380" width="40" height="40" as="geometry" />
        </mxCell>
        <mxCell id="QPudRAt53EiQrHGf7BYg-14" value="&lt;font style=&quot;font-size: 20px;&quot;&gt;+&lt;/font&gt;" style="rounded=0;whiteSpace=wrap;html=1;fillColor=#dae8fc;strokeColor=#6c8ebf;strokeWidth=3;" vertex="1" parent="1">
          <mxGeometry x="200" y="380" width="40" height="40" as="geometry" />
        </mxCell>
        <mxCell id="QPudRAt53EiQrHGf7BYg-15" value="&lt;span style=&quot;font-size: 20px;&quot;&gt;9&lt;/span&gt;" style="rounded=0;whiteSpace=wrap;html=1;fillColor=#dae8fc;strokeColor=#6c8ebf;strokeWidth=3;" vertex="1" parent="1">
          <mxGeometry x="240" y="380" width="40" height="40" as="geometry" />
        </mxCell>
        <mxCell id="QPudRAt53EiQrHGf7BYg-16" value="&lt;font style=&quot;font-size: 20px;&quot;&gt;=&lt;/font&gt;" style="rounded=0;whiteSpace=wrap;html=1;fillColor=#dae8fc;strokeColor=#6c8ebf;strokeWidth=3;" vertex="1" parent="1">
          <mxGeometry x="280" y="380" width="40" height="40" as="geometry" />
        </mxCell>
        <mxCell id="QPudRAt53EiQrHGf7BYg-17" value="&lt;font style=&quot;font-size: 20px;&quot;&gt;1&lt;/font&gt;" style="rounded=0;whiteSpace=wrap;html=1;fillColor=#e1d5e7;strokeColor=#9673a6;strokeWidth=3;" vertex="1" parent="1">
          <mxGeometry x="320" y="380" width="40" height="40" as="geometry" />
        </mxCell>
        <mxCell id="QPudRAt53EiQrHGf7BYg-18" value="&lt;font style=&quot;font-size: 20px;&quot;&gt;7&lt;/font&gt;" style="rounded=0;whiteSpace=wrap;html=1;fillColor=#e1d5e7;strokeColor=#9673a6;strokeWidth=3;" vertex="1" parent="1">
          <mxGeometry x="360" y="380" width="40" height="40" as="geometry" />
        </mxCell>
        <mxCell id="QPudRAt53EiQrHGf7BYg-19" value="&lt;font style=&quot;font-size: 20px;&quot;&gt;$&lt;/font&gt;" style="rounded=0;whiteSpace=wrap;html=1;fillColor=#e1d5e7;strokeColor=#9673a6;strokeWidth=3;" vertex="1" parent="1">
          <mxGeometry x="400" y="380" width="40" height="40" as="geometry" />
        </mxCell>
        <mxCell id="QPudRAt53EiQrHGf7BYg-20" value="" style="rounded=0;whiteSpace=wrap;html=1;fillColor=#fff2cc;strokeColor=#d6b656;strokeWidth=3;" vertex="1" parent="1">
          <mxGeometry x="440" y="380" width="40" height="40" as="geometry" />
        </mxCell>
        <mxCell id="QPudRAt53EiQrHGf7BYg-21" value="" style="rounded=0;whiteSpace=wrap;html=1;fillColor=#fff2cc;strokeColor=#d6b656;strokeWidth=3;" vertex="1" parent="1">
          <mxGeometry x="480" y="380" width="40" height="40" as="geometry" />
        </mxCell>
        <mxCell id="QPudRAt53EiQrHGf7BYg-22" value="" style="rounded=0;whiteSpace=wrap;html=1;fillColor=#fff2cc;strokeColor=#d6b656;strokeWidth=3;" vertex="1" parent="1">
          <mxGeometry x="653" y="387.25" width="20" height="20" as="geometry" />
        </mxCell>
        <mxCell id="QPudRAt53EiQrHGf7BYg-23" value="&lt;font style=&quot;font-size: 20px;&quot;&gt;Pad token&lt;/font&gt;" style="text;html=1;align=center;verticalAlign=middle;whiteSpace=wrap;rounded=0;strokeWidth=1;" vertex="1" parent="1">
          <mxGeometry x="653" y="382.25" width="160" height="30" as="geometry" />
        </mxCell>
        <mxCell id="QPudRAt53EiQrHGf7BYg-24" value="" style="rounded=0;whiteSpace=wrap;html=1;fillColor=#e1d5e7;strokeColor=#9673a6;strokeWidth=3;" vertex="1" parent="1">
          <mxGeometry x="833" y="347.25" width="20" height="20" as="geometry" />
        </mxCell>
        <mxCell id="QPudRAt53EiQrHGf7BYg-25" value="&lt;font style=&quot;font-size: 20px;&quot;&gt;Answer token&lt;/font&gt;" style="text;html=1;align=center;verticalAlign=middle;whiteSpace=wrap;rounded=0;strokeWidth=1;" vertex="1" parent="1">
          <mxGeometry x="847" y="342.25" width="160" height="30" as="geometry" />
        </mxCell>
        <mxCell id="QPudRAt53EiQrHGf7BYg-26" value="" style="rounded=0;whiteSpace=wrap;html=1;fillColor=#dae8fc;strokeColor=#6c8ebf;strokeWidth=3;" vertex="1" parent="1">
          <mxGeometry x="653" y="347.25" width="20" height="20" as="geometry" />
        </mxCell>
        <mxCell id="QPudRAt53EiQrHGf7BYg-27" value="&lt;font style=&quot;font-size: 20px;&quot;&gt;Prompt token&lt;/font&gt;" style="text;html=1;align=center;verticalAlign=middle;whiteSpace=wrap;rounded=0;strokeWidth=1;" vertex="1" parent="1">
          <mxGeometry x="667" y="342.25" width="160" height="30" as="geometry" />
        </mxCell>
        <mxCell id="QPudRAt53EiQrHGf7BYg-29" value="" style="endArrow=block;html=1;rounded=0;strokeWidth=2;endFill=1;" edge="1" parent="1">
          <mxGeometry width="50" height="50" relative="1" as="geometry">
            <mxPoint x="319.17" y="330" as="sourcePoint" />
            <mxPoint x="319.17" y="310" as="targetPoint" />
          </mxGeometry>
        </mxCell>
        <mxCell id="QPudRAt53EiQrHGf7BYg-30" value="" style="endArrow=block;html=1;rounded=0;strokeWidth=2;endFill=1;" edge="1" parent="1">
          <mxGeometry width="50" height="50" relative="1" as="geometry">
            <mxPoint x="319.17" y="230" as="sourcePoint" />
            <mxPoint x="319.17" y="210" as="targetPoint" />
          </mxGeometry>
        </mxCell>
        <mxCell id="QPudRAt53EiQrHGf7BYg-41" value="&lt;font style=&quot;font-size: 20px;&quot;&gt;Logits&lt;/font&gt;" style="text;html=1;align=center;verticalAlign=middle;whiteSpace=wrap;rounded=0;strokeWidth=1;" vertex="1" parent="1">
          <mxGeometry x="220" y="60" width="160" height="30" as="geometry" />
        </mxCell>
        <mxCell id="QPudRAt53EiQrHGf7BYg-47" value="&lt;span style=&quot;font-size: 20px;&quot;&gt;&amp;nbsp;&lt;/span&gt;" style="rounded=0;whiteSpace=wrap;html=1;fillColor=#e1d5e7;strokeColor=#9673a6;strokeWidth=3;" vertex="1" parent="1">
          <mxGeometry x="320" y="160" width="40" height="40" as="geometry" />
        </mxCell>
        <mxCell id="QPudRAt53EiQrHGf7BYg-48" value="&lt;span style=&quot;font-size: 20px;&quot;&gt;&amp;nbsp;&lt;/span&gt;" style="rounded=0;whiteSpace=wrap;html=1;fillColor=#e1d5e7;strokeColor=#9673a6;strokeWidth=3;" vertex="1" parent="1">
          <mxGeometry x="360" y="160" width="40" height="40" as="geometry" />
        </mxCell>
        <mxCell id="QPudRAt53EiQrHGf7BYg-49" value="&lt;span style=&quot;font-size: 20px;&quot;&gt;&amp;nbsp;&lt;/span&gt;" style="rounded=0;whiteSpace=wrap;html=1;fillColor=#e1d5e7;strokeColor=#9673a6;strokeWidth=3;" vertex="1" parent="1">
          <mxGeometry x="400" y="160" width="40" height="40" as="geometry" />
        </mxCell>
        <mxCell id="QPudRAt53EiQrHGf7BYg-50" value="" style="rounded=0;whiteSpace=wrap;html=1;fillColor=#fff2cc;strokeColor=#d6b656;strokeWidth=3;" vertex="1" parent="1">
          <mxGeometry x="440" y="160" width="40" height="40" as="geometry" />
        </mxCell>
        <mxCell id="QPudRAt53EiQrHGf7BYg-51" value="" style="rounded=0;whiteSpace=wrap;html=1;fillColor=#fff2cc;strokeColor=#d6b656;strokeWidth=3;" vertex="1" parent="1">
          <mxGeometry x="480" y="160" width="40" height="40" as="geometry" />
        </mxCell>
        <mxCell id="QPudRAt53EiQrHGf7BYg-54" value="" style="shape=cube;whiteSpace=wrap;html=1;boundedLbl=1;backgroundOutline=1;darkOpacity=0.05;darkOpacity2=0.1;fillColor=#dae8fc;strokeColor=#6c8ebf;strokeWidth=3;" vertex="1" parent="1">
          <mxGeometry x="220" y="100" width="60" height="60" as="geometry" />
        </mxCell>
        <mxCell id="QPudRAt53EiQrHGf7BYg-55" value="" style="shape=cube;whiteSpace=wrap;html=1;boundedLbl=1;backgroundOutline=1;darkOpacity=0.05;darkOpacity2=0.1;fillColor=#dae8fc;strokeColor=#6c8ebf;strokeWidth=3;" vertex="1" parent="1">
          <mxGeometry x="180" y="100" width="60" height="60" as="geometry" />
        </mxCell>
        <mxCell id="QPudRAt53EiQrHGf7BYg-56" value="" style="shape=cube;whiteSpace=wrap;html=1;boundedLbl=1;backgroundOutline=1;darkOpacity=0.05;darkOpacity2=0.1;fillColor=#dae8fc;strokeColor=#6c8ebf;strokeWidth=3;" vertex="1" parent="1">
          <mxGeometry x="140" y="100" width="60" height="60" as="geometry" />
        </mxCell>
        <mxCell id="QPudRAt53EiQrHGf7BYg-57" value="" style="shape=cube;whiteSpace=wrap;html=1;boundedLbl=1;backgroundOutline=1;darkOpacity=0.05;darkOpacity2=0.1;fillColor=#dae8fc;strokeColor=#6c8ebf;strokeWidth=3;" vertex="1" parent="1">
          <mxGeometry x="100" y="100" width="60" height="60" as="geometry" />
        </mxCell>
        <mxCell id="QPudRAt53EiQrHGf7BYg-94" value="&lt;font style=&quot;font-size: 20px;&quot;&gt;1&lt;/font&gt;" style="rounded=0;whiteSpace=wrap;html=1;fillColor=#dae8fc;strokeColor=#6c8ebf;strokeWidth=3;dashed=1;dashPattern=1 1;" vertex="1" parent="1">
          <mxGeometry x="620" y="120" width="40" height="40" as="geometry" />
        </mxCell>
        <mxCell id="QPudRAt53EiQrHGf7BYg-95" value="&lt;font style=&quot;font-size: 20px;&quot;&gt;2&lt;/font&gt;" style="rounded=0;whiteSpace=wrap;html=1;fillColor=#dae8fc;strokeColor=#6c8ebf;strokeWidth=3;dashed=1;dashPattern=1 1;" vertex="1" parent="1">
          <mxGeometry x="660" y="120" width="40" height="40" as="geometry" />
        </mxCell>
        <mxCell id="QPudRAt53EiQrHGf7BYg-96" value="&lt;span style=&quot;font-size: 20px;&quot;&gt;+&lt;/span&gt;" style="rounded=0;whiteSpace=wrap;html=1;fillColor=#dae8fc;strokeColor=#6c8ebf;strokeWidth=3;dashed=1;dashPattern=1 1;" vertex="1" parent="1">
          <mxGeometry x="700" y="120" width="40" height="40" as="geometry" />
        </mxCell>
        <mxCell id="QPudRAt53EiQrHGf7BYg-97" value="&lt;font style=&quot;font-size: 20px;&quot;&gt;3&lt;/font&gt;" style="rounded=0;whiteSpace=wrap;html=1;fillColor=#dae8fc;strokeColor=#6c8ebf;strokeWidth=3;dashed=1;dashPattern=1 1;" vertex="1" parent="1">
          <mxGeometry x="740" y="120" width="40" height="40" as="geometry" />
        </mxCell>
        <mxCell id="QPudRAt53EiQrHGf7BYg-98" value="&lt;font style=&quot;font-size: 20px;&quot;&gt;4&lt;/font&gt;" style="rounded=0;whiteSpace=wrap;html=1;fillColor=#dae8fc;strokeColor=#6c8ebf;strokeWidth=3;dashed=1;dashPattern=1 1;" vertex="1" parent="1">
          <mxGeometry x="780" y="120" width="40" height="40" as="geometry" />
        </mxCell>
        <mxCell id="QPudRAt53EiQrHGf7BYg-99" value="&lt;font style=&quot;font-size: 20px;&quot;&gt;=&lt;/font&gt;" style="rounded=0;whiteSpace=wrap;html=1;fillColor=#dae8fc;strokeColor=#6c8ebf;strokeWidth=3;dashed=1;dashPattern=1 1;" vertex="1" parent="1">
          <mxGeometry x="820" y="120" width="40" height="40" as="geometry" />
        </mxCell>
        <mxCell id="QPudRAt53EiQrHGf7BYg-100" value="&lt;font style=&quot;font-size: 20px;&quot;&gt;4&lt;/font&gt;" style="rounded=0;whiteSpace=wrap;html=1;fillColor=#e1d5e7;strokeColor=#9673a6;strokeWidth=3;" vertex="1" parent="1">
          <mxGeometry x="860" y="120" width="40" height="40" as="geometry" />
        </mxCell>
        <mxCell id="QPudRAt53EiQrHGf7BYg-101" value="&lt;font style=&quot;font-size: 20px;&quot;&gt;6&lt;/font&gt;" style="rounded=0;whiteSpace=wrap;html=1;fillColor=#e1d5e7;strokeColor=#9673a6;strokeWidth=3;" vertex="1" parent="1">
          <mxGeometry x="900" y="120" width="40" height="40" as="geometry" />
        </mxCell>
        <mxCell id="QPudRAt53EiQrHGf7BYg-102" value="&lt;font style=&quot;font-size: 20px;&quot;&gt;$&lt;/font&gt;" style="rounded=0;whiteSpace=wrap;html=1;fillColor=#e1d5e7;strokeColor=#9673a6;strokeWidth=3;" vertex="1" parent="1">
          <mxGeometry x="940" y="120" width="40" height="40" as="geometry" />
        </mxCell>
        <mxCell id="QPudRAt53EiQrHGf7BYg-103" value="&lt;font style=&quot;font-size: 20px;&quot;&gt;Target (input shifted left)&lt;/font&gt;" style="text;html=1;align=center;verticalAlign=middle;whiteSpace=wrap;rounded=0;strokeWidth=1;" vertex="1" parent="1">
          <mxGeometry x="700" y="210" width="240" height="30" as="geometry" />
        </mxCell>
        <mxCell id="QPudRAt53EiQrHGf7BYg-105" value="&lt;font style=&quot;font-size: 20px;&quot;&gt;8&lt;/font&gt;" style="rounded=0;whiteSpace=wrap;html=1;fillColor=#dae8fc;strokeColor=#6c8ebf;strokeWidth=3;dashed=1;dashPattern=1 1;" vertex="1" parent="1">
          <mxGeometry x="620" y="160" width="40" height="40" as="geometry" />
        </mxCell>
        <mxCell id="QPudRAt53EiQrHGf7BYg-106" value="&lt;font style=&quot;font-size: 20px;&quot;&gt;+&lt;/font&gt;" style="rounded=0;whiteSpace=wrap;html=1;fillColor=#dae8fc;strokeColor=#6c8ebf;strokeWidth=3;dashed=1;dashPattern=1 1;" vertex="1" parent="1">
          <mxGeometry x="660" y="160" width="40" height="40" as="geometry" />
        </mxCell>
        <mxCell id="QPudRAt53EiQrHGf7BYg-107" value="&lt;span style=&quot;font-size: 20px;&quot;&gt;9&lt;/span&gt;" style="rounded=0;whiteSpace=wrap;html=1;fillColor=#dae8fc;strokeColor=#6c8ebf;strokeWidth=3;dashed=1;dashPattern=1 1;" vertex="1" parent="1">
          <mxGeometry x="700" y="160" width="40" height="40" as="geometry" />
        </mxCell>
        <mxCell id="QPudRAt53EiQrHGf7BYg-108" value="&lt;font style=&quot;font-size: 20px;&quot;&gt;=&lt;/font&gt;" style="rounded=0;whiteSpace=wrap;html=1;fillColor=#dae8fc;strokeColor=#6c8ebf;strokeWidth=3;dashed=1;dashPattern=1 1;" vertex="1" parent="1">
          <mxGeometry x="740" y="160" width="40" height="40" as="geometry" />
        </mxCell>
        <mxCell id="QPudRAt53EiQrHGf7BYg-109" value="&lt;font style=&quot;font-size: 20px;&quot;&gt;1&lt;/font&gt;" style="rounded=0;whiteSpace=wrap;html=1;fillColor=#e1d5e7;strokeColor=#9673a6;strokeWidth=3;" vertex="1" parent="1">
          <mxGeometry x="780" y="160" width="40" height="40" as="geometry" />
        </mxCell>
        <mxCell id="QPudRAt53EiQrHGf7BYg-110" value="&lt;font style=&quot;font-size: 20px;&quot;&gt;7&lt;/font&gt;" style="rounded=0;whiteSpace=wrap;html=1;fillColor=#e1d5e7;strokeColor=#9673a6;strokeWidth=3;" vertex="1" parent="1">
          <mxGeometry x="820" y="160" width="40" height="40" as="geometry" />
        </mxCell>
        <mxCell id="QPudRAt53EiQrHGf7BYg-111" value="&lt;font style=&quot;font-size: 20px;&quot;&gt;$&lt;/font&gt;" style="rounded=0;whiteSpace=wrap;html=1;fillColor=#e1d5e7;strokeColor=#9673a6;strokeWidth=3;" vertex="1" parent="1">
          <mxGeometry x="860" y="160" width="40" height="40" as="geometry" />
        </mxCell>
        <mxCell id="QPudRAt53EiQrHGf7BYg-112" value="" style="rounded=0;whiteSpace=wrap;html=1;fillColor=#fff2cc;strokeColor=#d6b656;strokeWidth=3;dashed=1;dashPattern=1 1;" vertex="1" parent="1">
          <mxGeometry x="900" y="160" width="40" height="40" as="geometry" />
        </mxCell>
        <mxCell id="QPudRAt53EiQrHGf7BYg-113" value="" style="rounded=0;whiteSpace=wrap;html=1;fillColor=#fff2cc;strokeColor=#d6b656;strokeWidth=3;dashed=1;dashPattern=1 1;" vertex="1" parent="1">
          <mxGeometry x="940" y="160" width="40" height="40" as="geometry" />
        </mxCell>
        <mxCell id="QPudRAt53EiQrHGf7BYg-114" value="" style="rounded=0;whiteSpace=wrap;html=1;fillColor=#fff2cc;strokeColor=#d6b656;strokeWidth=3;dashed=1;dashPattern=1 1;" vertex="1" parent="1">
          <mxGeometry x="980" y="160" width="40" height="40" as="geometry" />
        </mxCell>
        <mxCell id="QPudRAt53EiQrHGf7BYg-115" value="" style="rounded=0;whiteSpace=wrap;html=1;fillColor=#fff2cc;strokeColor=#d6b656;strokeWidth=3;dashed=1;dashPattern=1 1;" vertex="1" parent="1">
          <mxGeometry x="980" y="120" width="40" height="40" as="geometry" />
        </mxCell>
        <mxCell id="QPudRAt53EiQrHGf7BYg-116" value="" style="endArrow=block;startArrow=block;html=1;rounded=0;endFill=1;startFill=1;" edge="1" parent="1">
          <mxGeometry width="50" height="50" relative="1" as="geometry">
            <mxPoint x="110" y="220" as="sourcePoint" />
            <mxPoint x="80" y="190" as="targetPoint" />
          </mxGeometry>
        </mxCell>
        <mxCell id="QPudRAt53EiQrHGf7BYg-117" value="&lt;font style=&quot;font-size: 20px;&quot;&gt;d&lt;/font&gt;" style="text;html=1;align=center;verticalAlign=middle;whiteSpace=wrap;rounded=0;strokeWidth=1;" vertex="1" parent="1">
          <mxGeometry x="60" y="200" width="40" height="30" as="geometry" />
        </mxCell>
        <mxCell id="QPudRAt53EiQrHGf7BYg-119" value="" style="endArrow=block;startArrow=block;html=1;rounded=0;endFill=1;startFill=1;" edge="1" parent="1">
          <mxGeometry width="50" height="50" relative="1" as="geometry">
            <mxPoint x="108" y="420" as="sourcePoint" />
            <mxPoint x="108" y="340" as="targetPoint" />
          </mxGeometry>
        </mxCell>
        <mxCell id="QPudRAt53EiQrHGf7BYg-120" value="&lt;font style=&quot;font-size: 20px;&quot;&gt;b&lt;/font&gt;" style="text;html=1;align=center;verticalAlign=middle;whiteSpace=wrap;rounded=0;strokeWidth=1;" vertex="1" parent="1">
          <mxGeometry x="70" y="363" width="40" height="30" as="geometry" />
        </mxCell>
        <mxCell id="QPudRAt53EiQrHGf7BYg-122" value="" style="endArrow=block;startArrow=block;html=1;rounded=0;endFill=1;startFill=1;" edge="1" parent="1">
          <mxGeometry width="50" height="50" relative="1" as="geometry">
            <mxPoint x="120" y="440" as="sourcePoint" />
            <mxPoint x="520" y="440" as="targetPoint" />
          </mxGeometry>
        </mxCell>
        <mxCell id="QPudRAt53EiQrHGf7BYg-123" value="&lt;font style=&quot;font-size: 20px;&quot;&gt;n&lt;/font&gt;" style="text;html=1;align=center;verticalAlign=middle;whiteSpace=wrap;rounded=0;strokeWidth=1;" vertex="1" parent="1">
          <mxGeometry x="300" y="443" width="40" height="30" as="geometry" />
        </mxCell>
        <mxCell id="QPudRAt53EiQrHGf7BYg-124" value="" style="rounded=0;whiteSpace=wrap;html=1;fillColor=#f5f5f5;strokeColor=#666666;strokeWidth=3;fontColor=#333333;dashed=1;dashPattern=1 1;" vertex="1" parent="1">
          <mxGeometry x="833" y="387.25" width="20" height="20" as="geometry" />
        </mxCell>
        <mxCell id="QPudRAt53EiQrHGf7BYg-125" value="&lt;font style=&quot;font-size: 20px;&quot;&gt;Ignored in loss&lt;/font&gt;" style="text;html=1;align=center;verticalAlign=middle;whiteSpace=wrap;rounded=0;strokeWidth=1;" vertex="1" parent="1">
          <mxGeometry x="850" y="382.25" width="160" height="30" as="geometry" />
        </mxCell>
        <mxCell id="QPudRAt53EiQrHGf7BYg-128" value="" style="endArrow=block;html=1;rounded=0;strokeWidth=2;endFill=1;" edge="1" parent="1">
          <mxGeometry width="50" height="50" relative="1" as="geometry">
            <mxPoint x="610" y="160" as="sourcePoint" />
            <mxPoint x="590" y="159.58" as="targetPoint" />
          </mxGeometry>
        </mxCell>
        <mxCell id="QPudRAt53EiQrHGf7BYg-129" value="" style="endArrow=block;html=1;rounded=0;strokeWidth=2;endFill=1;" edge="1" parent="1">
          <mxGeometry width="50" height="50" relative="1" as="geometry">
            <mxPoint x="530" y="159.65" as="sourcePoint" />
            <mxPoint x="550" y="160" as="targetPoint" />
          </mxGeometry>
        </mxCell>
        <mxCell id="QPudRAt53EiQrHGf7BYg-130" value="&lt;font style=&quot;font-size: 24px;&quot;&gt;$$\mathcal{L}$$&lt;/font&gt;" style="text;html=1;align=center;verticalAlign=middle;whiteSpace=wrap;rounded=0;strokeWidth=1;" vertex="1" parent="1">
          <mxGeometry x="550" y="130" width="40" height="60" as="geometry" />
        </mxCell>
        <mxCell id="QPudRAt53EiQrHGf7BYg-131" value="" style="endArrow=block;html=1;rounded=0;strokeWidth=2;endFill=1;" edge="1" parent="1">
          <mxGeometry width="50" height="50" relative="1" as="geometry">
            <mxPoint x="569.5" y="180" as="sourcePoint" />
            <mxPoint x="600" y="240" as="targetPoint" />
          </mxGeometry>
        </mxCell>
        <mxCell id="QPudRAt53EiQrHGf7BYg-132" value="&lt;font style=&quot;font-size: 20px;&quot;&gt;Loss&lt;/font&gt;" style="text;html=1;align=center;verticalAlign=middle;whiteSpace=wrap;rounded=0;strokeWidth=1;" vertex="1" parent="1">
          <mxGeometry x="560" y="250" width="100" height="30" as="geometry" />
        </mxCell>
        <mxCell id="QPudRAt53EiQrHGf7BYg-134" value="&lt;font style=&quot;font-size: 22px;&quot;&gt;(a) Training&lt;/font&gt;" style="text;html=1;align=center;verticalAlign=middle;whiteSpace=wrap;rounded=0;strokeWidth=1;fontStyle=1" vertex="1" parent="1">
          <mxGeometry x="480" y="510" width="160" height="30" as="geometry" />
        </mxCell>
        <mxCell id="QPudRAt53EiQrHGf7BYg-135" value="&lt;font style=&quot;font-size: 22px;&quot;&gt;(b) Inference&lt;/font&gt;" style="text;html=1;align=center;verticalAlign=middle;whiteSpace=wrap;rounded=0;strokeWidth=1;fontStyle=1" vertex="1" parent="1">
          <mxGeometry x="480" y="920" width="160" height="30" as="geometry" />
        </mxCell>
        <mxCell id="QPudRAt53EiQrHGf7BYg-136" value="&lt;font style=&quot;font-size: 20px;&quot;&gt;Transformer&lt;/font&gt;" style="rounded=1;whiteSpace=wrap;html=1;fillColor=#F0F0F0;strokeColor=#A6A6A6;strokeWidth=4;arcSize=5;" vertex="1" parent="1">
          <mxGeometry x="320" y="710" width="280" height="60" as="geometry" />
        </mxCell>
        <mxCell id="QPudRAt53EiQrHGf7BYg-137" value="&lt;font style=&quot;font-size: 20px;&quot;&gt;$&lt;/font&gt;" style="rounded=0;whiteSpace=wrap;html=1;fillColor=#dae8fc;strokeColor=#6c8ebf;strokeWidth=3;" vertex="1" parent="1">
          <mxGeometry x="320" y="810" width="40" height="40" as="geometry" />
        </mxCell>
        <mxCell id="QPudRAt53EiQrHGf7BYg-138" value="&lt;font style=&quot;font-size: 20px;&quot;&gt;1&lt;/font&gt;" style="rounded=0;whiteSpace=wrap;html=1;fillColor=#dae8fc;strokeColor=#6c8ebf;strokeWidth=3;" vertex="1" parent="1">
          <mxGeometry x="360" y="810" width="40" height="40" as="geometry" />
        </mxCell>
        <mxCell id="QPudRAt53EiQrHGf7BYg-139" value="&lt;font style=&quot;font-size: 20px;&quot;&gt;2&lt;/font&gt;" style="rounded=0;whiteSpace=wrap;html=1;fillColor=#dae8fc;strokeColor=#6c8ebf;strokeWidth=3;" vertex="1" parent="1">
          <mxGeometry x="400" y="810" width="40" height="40" as="geometry" />
        </mxCell>
        <mxCell id="QPudRAt53EiQrHGf7BYg-140" value="&lt;span style=&quot;font-size: 20px;&quot;&gt;+&lt;/span&gt;" style="rounded=0;whiteSpace=wrap;html=1;fillColor=#dae8fc;strokeColor=#6c8ebf;strokeWidth=3;" vertex="1" parent="1">
          <mxGeometry x="440" y="810" width="40" height="40" as="geometry" />
        </mxCell>
        <mxCell id="QPudRAt53EiQrHGf7BYg-141" value="&lt;font style=&quot;font-size: 20px;&quot;&gt;3&lt;/font&gt;" style="rounded=0;whiteSpace=wrap;html=1;fillColor=#dae8fc;strokeColor=#6c8ebf;strokeWidth=3;" vertex="1" parent="1">
          <mxGeometry x="480" y="810" width="40" height="40" as="geometry" />
        </mxCell>
        <mxCell id="QPudRAt53EiQrHGf7BYg-142" value="&lt;font style=&quot;font-size: 20px;&quot;&gt;4&lt;/font&gt;" style="rounded=0;whiteSpace=wrap;html=1;fillColor=#dae8fc;strokeColor=#6c8ebf;strokeWidth=3;" vertex="1" parent="1">
          <mxGeometry x="520" y="810" width="40" height="40" as="geometry" />
        </mxCell>
        <mxCell id="QPudRAt53EiQrHGf7BYg-143" value="&lt;font style=&quot;font-size: 20px;&quot;&gt;=&lt;/font&gt;" style="rounded=0;whiteSpace=wrap;html=1;fillColor=#dae8fc;strokeColor=#6c8ebf;strokeWidth=3;" vertex="1" parent="1">
          <mxGeometry x="560" y="810" width="40" height="40" as="geometry" />
        </mxCell>
        <mxCell id="QPudRAt53EiQrHGf7BYg-157" value="" style="endArrow=block;html=1;rounded=0;strokeWidth=2;endFill=1;" edge="1" parent="1">
          <mxGeometry width="50" height="50" relative="1" as="geometry">
            <mxPoint x="459.1700000000001" y="800" as="sourcePoint" />
            <mxPoint x="459.1700000000001" y="780" as="targetPoint" />
          </mxGeometry>
        </mxCell>
        <mxCell id="QPudRAt53EiQrHGf7BYg-158" value="" style="endArrow=block;html=1;rounded=0;strokeWidth=2;endFill=1;" edge="1" parent="1">
          <mxGeometry width="50" height="50" relative="1" as="geometry">
            <mxPoint x="459.1700000000001" y="700" as="sourcePoint" />
            <mxPoint x="459.1700000000001" y="680" as="targetPoint" />
          </mxGeometry>
        </mxCell>
        <mxCell id="QPudRAt53EiQrHGf7BYg-161" value="" style="endArrow=block;startArrow=block;html=1;rounded=0;endFill=1;startFill=1;" edge="1" parent="1">
          <mxGeometry width="50" height="50" relative="1" as="geometry">
            <mxPoint x="320" y="870" as="sourcePoint" />
            <mxPoint x="600" y="870" as="targetPoint" />
          </mxGeometry>
        </mxCell>
        <mxCell id="QPudRAt53EiQrHGf7BYg-162" value="&lt;font style=&quot;font-size: 20px;&quot;&gt;prompt&lt;/font&gt;" style="text;html=1;align=center;verticalAlign=middle;whiteSpace=wrap;rounded=0;strokeWidth=1;" vertex="1" parent="1">
          <mxGeometry x="440" y="872.25" width="40" height="30" as="geometry" />
        </mxCell>
        <mxCell id="QPudRAt53EiQrHGf7BYg-166" value="" style="shape=cube;whiteSpace=wrap;html=1;boundedLbl=1;backgroundOutline=1;darkOpacity=0.05;darkOpacity2=0.1;fillColor=#dae8fc;strokeColor=#6c8ebf;strokeWidth=3;" vertex="1" parent="1">
          <mxGeometry x="540" y="610" width="60" height="60" as="geometry" />
        </mxCell>
        <mxCell id="QPudRAt53EiQrHGf7BYg-167" value="" style="shape=cube;whiteSpace=wrap;html=1;boundedLbl=1;backgroundOutline=1;darkOpacity=0.05;darkOpacity2=0.1;fillColor=#dae8fc;strokeColor=#6c8ebf;strokeWidth=3;opacity=40;" vertex="1" parent="1">
          <mxGeometry x="500" y="610" width="60" height="60" as="geometry" />
        </mxCell>
        <mxCell id="QPudRAt53EiQrHGf7BYg-168" value="" style="shape=cube;whiteSpace=wrap;html=1;boundedLbl=1;backgroundOutline=1;darkOpacity=0.05;darkOpacity2=0.1;fillColor=#dae8fc;strokeColor=#6c8ebf;strokeWidth=3;opacity=40;" vertex="1" parent="1">
          <mxGeometry x="460" y="610" width="60" height="60" as="geometry" />
        </mxCell>
        <mxCell id="QPudRAt53EiQrHGf7BYg-169" value="&lt;font style=&quot;font-size: 20px;&quot;&gt;Logits&lt;/font&gt;" style="text;html=1;align=center;verticalAlign=middle;whiteSpace=wrap;rounded=0;strokeWidth=1;" vertex="1" parent="1">
          <mxGeometry x="380" y="570" width="160" height="30" as="geometry" />
        </mxCell>
        <mxCell id="QPudRAt53EiQrHGf7BYg-170" value="" style="shape=cube;whiteSpace=wrap;html=1;boundedLbl=1;backgroundOutline=1;darkOpacity=0.05;darkOpacity2=0.1;fillColor=#dae8fc;strokeColor=#6c8ebf;strokeWidth=3;opacity=40;" vertex="1" parent="1">
          <mxGeometry x="420" y="610" width="60" height="60" as="geometry" />
        </mxCell>
        <mxCell id="QPudRAt53EiQrHGf7BYg-171" value="" style="shape=cube;whiteSpace=wrap;html=1;boundedLbl=1;backgroundOutline=1;darkOpacity=0.05;darkOpacity2=0.1;fillColor=#dae8fc;strokeColor=#6c8ebf;strokeWidth=3;opacity=40;" vertex="1" parent="1">
          <mxGeometry x="380" y="610" width="60" height="60" as="geometry" />
        </mxCell>
        <mxCell id="QPudRAt53EiQrHGf7BYg-172" value="" style="shape=cube;whiteSpace=wrap;html=1;boundedLbl=1;backgroundOutline=1;darkOpacity=0.05;darkOpacity2=0.1;fillColor=#dae8fc;strokeColor=#6c8ebf;strokeWidth=3;opacity=40;" vertex="1" parent="1">
          <mxGeometry x="340" y="610" width="60" height="60" as="geometry" />
        </mxCell>
        <mxCell id="QPudRAt53EiQrHGf7BYg-173" value="" style="shape=cube;whiteSpace=wrap;html=1;boundedLbl=1;backgroundOutline=1;darkOpacity=0.05;darkOpacity2=0.1;fillColor=#dae8fc;strokeColor=#6c8ebf;strokeWidth=3;opacity=40;" vertex="1" parent="1">
          <mxGeometry x="300" y="610" width="60" height="60" as="geometry" />
        </mxCell>
        <mxCell id="QPudRAt53EiQrHGf7BYg-174" value="" style="endArrow=block;html=1;rounded=0;strokeWidth=2;endFill=1;" edge="1" parent="1">
          <mxGeometry width="50" height="50" relative="1" as="geometry">
            <mxPoint x="610" y="650" as="sourcePoint" />
            <mxPoint x="760" y="650" as="targetPoint" />
          </mxGeometry>
        </mxCell>
        <mxCell id="QPudRAt53EiQrHGf7BYg-175" value="&lt;font style=&quot;font-size: 20px;&quot;&gt;Sample&amp;nbsp;&lt;/font&gt;&lt;font style=&quot;background-color: initial; font-size: 20px;&quot;&gt;using last token&amp;nbsp;&lt;/font&gt;&lt;span style=&quot;background-color: initial; font-size: 20px;&quot;&gt;logits&lt;/span&gt;" style="text;html=1;align=center;verticalAlign=middle;whiteSpace=wrap;rounded=0;strokeWidth=1;" vertex="1" parent="1">
          <mxGeometry x="594" y="583" width="180" height="60" as="geometry" />
        </mxCell>
        <mxCell id="QPudRAt53EiQrHGf7BYg-176" value="&lt;font style=&quot;font-size: 20px;&quot;&gt;4&lt;/font&gt;" style="rounded=0;whiteSpace=wrap;html=1;fillColor=#e1d5e7;strokeColor=#9673a6;strokeWidth=3;" vertex="1" parent="1">
          <mxGeometry x="770" y="630" width="40" height="40" as="geometry" />
        </mxCell>
        <mxCell id="QPudRAt53EiQrHGf7BYg-177" value="" style="endArrow=block;html=1;rounded=0;strokeWidth=2;endFill=1;curved=1;" edge="1" parent="1">
          <mxGeometry width="50" height="50" relative="1" as="geometry">
            <mxPoint x="789" y="682" as="sourcePoint" />
            <mxPoint x="609" y="832" as="targetPoint" />
            <Array as="points">
              <mxPoint x="769" y="830" />
            </Array>
          </mxGeometry>
        </mxCell>
        <mxCell id="QPudRAt53EiQrHGf7BYg-178" value="&lt;span style=&quot;font-size: 20px;&quot;&gt;Append &amp;amp; repeat&lt;/span&gt;" style="text;html=1;align=center;verticalAlign=middle;whiteSpace=wrap;rounded=0;strokeWidth=1;" vertex="1" parent="1">
          <mxGeometry x="644" y="720" width="130" height="60" as="geometry" />
        </mxCell>
      </root>
    </mxGraphModel>
  </diagram>
</mxfile>
